<svg xmlns="http://www.w3.org/2000/svg" viewBox="0 0 920 780" font-family="'Helvetica Neue', Arial, sans-serif">
  <defs>
    <marker id="arr" markerWidth="8" markerHeight="6" refX="8" refY="3" orient="auto">
      <polygon points="0 0, 8 3, 0 6" fill="#78909c"/>
    </marker>
    <marker id="arr-blue" markerWidth="8" markerHeight="6" refX="8" refY="3" orient="auto">
      <polygon points="0 0, 8 3, 0 6" fill="#42a5f5"/>
    </marker>
    <marker id="arr-green" markerWidth="8" markerHeight="6" refX="8" refY="3" orient="auto">
      <polygon points="0 0, 8 3, 0 6" fill="#66bb6a"/>
    </marker>
    <marker id="arr-cyan" markerWidth="8" markerHeight="6" refX="8" refY="3" orient="auto">
      <polygon points="0 0, 8 3, 0 6" fill="#26c6da"/>
    </marker>
    <marker id="arr-amber" markerWidth="8" markerHeight="6" refX="8" refY="3" orient="auto">
      <polygon points="0 0, 8 3, 0 6" fill="#fbbf24"/>
    </marker>
    <linearGradient id="bg" x1="0" y1="0" x2="0" y2="1">
      <stop offset="0%" stop-color="#111827"/>
      <stop offset="100%" stop-color="#0f172a"/>
    </linearGradient>
  </defs>

  <rect width="920" height="780" fill="url(#bg)" rx="10"/>

  <!-- Title -->
  <text x="460" y="36" text-anchor="middle" fill="#e2e8f0" font-size="18" font-weight="bold">DYデミオ 燃費メーター — 通信構成図</text>
  <text x="460" y="54" text-anchor="middle" fill="#64748b" font-size="11">Google Sheets運用 + 自動更新</text>

  <!-- =============== 車内エリア =============== -->
  <rect x="30" y="72" width="520" height="420" rx="8" fill="none" stroke="#334155" stroke-width="1.5" stroke-dasharray="8,4"/>
  <rect x="42" y="72" width="62" height="20" rx="3" fill="#111827"/>
  <text x="73" y="86" text-anchor="middle" fill="#94a3b8" font-size="12" font-weight="bold">🚗 車内</text>

  <!-- ECU -->
  <rect x="55" y="110" width="200" height="100" rx="8" fill="#1e293b" stroke="#475569" stroke-width="1.5"/>
  <text x="155" y="138" text-anchor="middle" fill="#e2e8f0" font-size="15" font-weight="bold">ECU</text>
  <text x="155" y="158" text-anchor="middle" fill="#94a3b8" font-size="10">ZJ-VE 1.3L エンジン制御</text>
  <text x="155" y="174" text-anchor="middle" fill="#64748b" font-size="9">CAN (ISO 15765-4 / 500kbps)</text>
  <text x="155" y="190" text-anchor="middle" fill="#64748b" font-size="9">センサー: RPM, 速度, 負荷, MAF/MAP, 水温...</text>

  <!-- OBD-II Port label -->
  <rect x="110" y="222" width="90" height="22" rx="4" fill="#1e293b" stroke="#475569" stroke-width="1"/>
  <text x="155" y="237" text-anchor="middle" fill="#94a3b8" font-size="9">OBD-IIポート</text>
  <text x="155" y="250" text-anchor="middle" fill="#64748b" font-size="8">(ハンドル下・常時通電)</text>

  <!-- Arrow ECU → OBD -->
  <line x1="155" y1="210" x2="155" y2="220" stroke="#475569" stroke-width="1.5"/>

  <!-- ELM327 -->
  <rect x="55" y="265" width="200" height="85" rx="8" fill="#1e293b" stroke="#42a5f5" stroke-width="1.5"/>
  <text x="155" y="293" text-anchor="middle" fill="#42a5f5" font-size="14" font-weight="bold">ELM327 V1.5</text>
  <text x="155" y="311" text-anchor="middle" fill="#94a3b8" font-size="10">Zappa BT2.0 スイッチ付き</text>
  <text x="155" y="327" text-anchor="middle" fill="#64748b" font-size="9">OBD-II信号 → Bluetooth変換</text>
  <text x="155" y="340" text-anchor="middle" fill="#64748b" font-size="9">終了時 AT LP でスリープ</text>

  <!-- Arrow OBD → ELM327 -->
  <line x1="155" y1="252" x2="155" y2="263" stroke="#475569" stroke-width="1.5" marker-end="url(#arr)"/>

  <!-- Raspberry Pi -->
  <rect x="310" y="130" width="220" height="210" rx="8" fill="#1e293b" stroke="#66bb6a" stroke-width="1.5"/>
  <text x="420" y="158" text-anchor="middle" fill="#66bb6a" font-size="14" font-weight="bold">Raspberry Pi 4 (2GB)</text>
  <text x="420" y="175" text-anchor="middle" fill="#94a3b8" font-size="10">グローブボックス内 / Pi OS Lite</text>

  <!-- Pi internals -->
  <rect x="325" y="188" width="190" height="20" rx="3" fill="#0f172a" stroke="#334155" stroke-width="0.8"/>
  <text x="420" y="202" text-anchor="middle" fill="#94a3b8" font-size="10">pi-obd-meter (Go + go:embed)</text>

  <rect x="325" y="214" width="92" height="20" rx="3" fill="#0f172a" stroke="#334155" stroke-width="0.8"/>
  <text x="371" y="228" text-anchor="middle" fill="#64748b" font-size="9">BT → rfcomm0</text>

  <rect x="423" y="214" width="92" height="20" rx="3" fill="#0f172a" stroke="#334155" stroke-width="0.8"/>
  <text x="469" y="228" text-anchor="middle" fill="#64748b" font-size="9">WiFi (内蔵)</text>

  <rect x="325" y="240" width="92" height="20" rx="3" fill="#0f172a" stroke="#334155" stroke-width="0.8"/>
  <text x="371" y="254" text-anchor="middle" fill="#64748b" font-size="9">HTTP :9090</text>

  <rect x="423" y="240" width="92" height="20" rx="3" fill="#0f172a" stroke="#334155" stroke-width="0.8"/>
  <text x="469" y="254" text-anchor="middle" fill="#64748b" font-size="9">HDMI出力</text>

  <rect x="325" y="266" width="92" height="20" rx="3" fill="#0f172a" stroke="#334155" stroke-width="0.8"/>
  <text x="371" y="280" text-anchor="middle" fill="#64748b" font-size="9">Web UI埋め込み</text>

  <rect x="423" y="266" width="92" height="20" rx="3" fill="#0f172a" stroke="#334155" stroke-width="0.8"/>
  <text x="469" y="280" text-anchor="middle" fill="#64748b" font-size="9">go-selfupdate</text>

  <rect x="325" y="296" width="190" height="18" rx="3" fill="#0f172a" stroke="#334155" stroke-width="0.8"/>
  <text x="420" y="309" text-anchor="middle" fill="#475569" font-size="8">Chromium kiosk / atomic write (SD保護)</text>

  <!-- ELM327 → Pi (Bluetooth) -->
  <path d="M255,305 Q290,305 310,240" fill="none" stroke="#42a5f5" stroke-width="2.5" stroke-dasharray="6,3" marker-end="url(#arr-blue)"/>
  <text x="258" y="263" fill="#42a5f5" font-size="11" font-weight="bold">Bluetooth 2.0</text>
  <text x="258" y="277" fill="#64b5f6" font-size="9">/dev/rfcomm0 (SPP)</text>

  <!-- LCD Display -->
  <rect x="310" y="386" width="220" height="85" rx="8" fill="#1e293b" stroke="#fb923c" stroke-width="1.5"/>
  <text x="420" y="413" text-anchor="middle" fill="#fb923c" font-size="14" font-weight="bold">5インチ LCD</text>
  <text x="420" y="430" text-anchor="middle" fill="#94a3b8" font-size="10">ELECROW IPS HDMI 800×480</text>
  <text x="420" y="446" text-anchor="middle" fill="#64748b" font-size="9">meter.html — 270° アークゲージ</text>
  <text x="420" y="460" text-anchor="middle" fill="#64748b" font-size="9">60fps補間 / 時刻ベース自動輝度</text>

  <!-- Pi → LCD -->
  <line x1="469" y1="340" x2="469" y2="384" stroke="#fb923c" stroke-width="2" marker-end="url(#arr)"/>
  <text x="478" y="365" fill="#fb923c" font-size="10" font-weight="bold">HDMI</text>

  <!-- Power -->
  <rect x="55" y="386" width="200" height="70" rx="8" fill="#1e293b" stroke="#ef4444" stroke-width="1.5"/>
  <text x="155" y="413" text-anchor="middle" fill="#ef4444" font-size="12" font-weight="bold">⚡ 電源 (ACC連動)</text>
  <text x="155" y="430" text-anchor="middle" fill="#94a3b8" font-size="10">シガーソケット → USB-C 5V/3A</text>
  <text x="155" y="445" text-anchor="middle" fill="#64748b" font-size="9">エンジンOFF → シャットダウン → AT LP</text>

  <!-- Power → Pi -->
  <path d="M255,410 Q285,390 310,340" fill="none" stroke="#ef4444" stroke-width="1.5" stroke-dasharray="4,3" marker-end="url(#arr)"/>
  <text x="275" y="375" fill="#ef4444" font-size="9">USB-C 5V</text>

  <!-- =============== クラウドエリア =============== -->
  <rect x="580" y="72" width="310" height="350" rx="8" fill="none" stroke="#334155" stroke-width="1.5" stroke-dasharray="8,4"/>
  <rect x="592" y="72" width="88" height="20" rx="3" fill="#111827"/>
  <text x="636" y="86" text-anchor="middle" fill="#94a3b8" font-size="12" font-weight="bold">☁️ クラウド</text>

  <!-- Google Apps Script -->
  <rect x="610" y="105" width="255" height="70" rx="8" fill="#1e293b" stroke="#66bb6a" stroke-width="1.5"/>
  <text x="737" y="130" text-anchor="middle" fill="#66bb6a" font-size="13" font-weight="bold">Google Apps Script</text>
  <text x="737" y="148" text-anchor="middle" fill="#94a3b8" font-size="10">Webhook (doPost) + ダッシュボード (doGet)</text>
  <text x="737" y="163" text-anchor="middle" fill="#64748b" font-size="9">トリップ/メンテ受信 → Sheets書込</text>

  <!-- Google Sheets -->
  <rect x="610" y="195" width="255" height="90" rx="8" fill="#1e293b" stroke="#34d399" stroke-width="1.5"/>
  <text x="737" y="220" text-anchor="middle" fill="#34d399" font-size="13" font-weight="bold">Google Sheets</text>
  <text x="737" y="240" text-anchor="middle" fill="#94a3b8" font-size="10">📊 トリップ (自動蓄積)</text>
  <text x="737" y="255" text-anchor="middle" fill="#94a3b8" font-size="10">⛽ 給油記録 (手入力・満タン法燃費)</text>
  <text x="737" y="270" text-anchor="middle" fill="#94a3b8" font-size="10">🔧 メンテナンス (手入力・プルダウン)</text>

  <!-- GitHub Releases -->
  <rect x="610" y="310" width="255" height="70" rx="8" fill="#1e293b" stroke="#fbbf24" stroke-width="1.5"/>
  <text x="737" y="335" text-anchor="middle" fill="#fbbf24" font-size="13" font-weight="bold">GitHub Releases</text>
  <text x="737" y="353" text-anchor="middle" fill="#94a3b8" font-size="10">tag push → CI → ARM64バイナリ</text>
  <text x="737" y="368" text-anchor="middle" fill="#64748b" font-size="9">go-selfupdate 互換アセット命名</text>

  <!-- GAS → Sheets -->
  <line x1="737" y1="175" x2="737" y2="193" stroke="#34d399" stroke-width="1.5" marker-end="url(#arr)"/>

  <!-- Pi → GAS (WiFi) -->
  <path d="M530,180 L608,135" fill="none" stroke="#66bb6a" stroke-width="2.5" marker-end="url(#arr-green)"/>
  <text x="548" y="143" fill="#66bb6a" font-size="11" font-weight="bold">WiFi</text>
  <text x="548" y="157" fill="#86efac" font-size="9">HTTP POST</text>
  <text x="548" y="169" fill="#64748b" font-size="8">トリップ/メンテ自動送信</text>

  <!-- GitHub → Pi (auto-update) -->
  <path d="M608,345 L530,260" fill="none" stroke="#fbbf24" stroke-width="2" stroke-dasharray="6,3" marker-end="url(#arr-amber)"/>
  <text x="548" y="298" fill="#fbbf24" font-size="10" font-weight="bold">自動更新</text>
  <text x="548" y="312" fill="#fde68a" font-size="9">起動時チェック</text>

  <!-- =============== スマホエリア =============== -->
  <rect x="580" y="450" width="310" height="100" rx="8" fill="none" stroke="#334155" stroke-width="1.5" stroke-dasharray="8,4"/>
  <rect x="592" y="450" width="62" height="20" rx="3" fill="#111827"/>
  <text x="623" y="464" text-anchor="middle" fill="#94a3b8" font-size="12" font-weight="bold">📱 スマホ</text>

  <!-- Phone box: GAS Dashboard -->
  <rect x="610" y="480" width="255" height="50" rx="6" fill="#1e293b" stroke="#34d399" stroke-width="1.5"/>
  <text x="737" y="500" text-anchor="middle" fill="#34d399" font-size="11" font-weight="bold">GAS Webダッシュボード (doGet)</text>
  <text x="737" y="516" text-anchor="middle" fill="#64748b" font-size="9">給油記録 / ODO補正 / メンテリセット / 燃費履歴</text>

  <!-- Sheets → Phone -->
  <line x1="737" y1="285" x2="737" y2="478" stroke="#34d399" stroke-width="1.5" stroke-dasharray="5,3" marker-end="url(#arr)"/>
  <text x="750" y="425" fill="#34d399" font-size="9">doGet HTML</text>

  <!-- =============== 凡例 =============== -->
  <rect x="30" y="575" width="860" height="190" rx="8" fill="#0c1222" stroke="#1e293b" stroke-width="1"/>
  <text x="50" y="600" fill="#94a3b8" font-size="13" font-weight="bold">通信経路</text>

  <line x1="50" y1="621" x2="95" y2="621" stroke="#475569" stroke-width="2"/>
  <circle cx="72" cy="621" r="3" fill="#475569"/>
  <text x="105" y="625" fill="#cbd5e1" font-size="11">❶ CAN有線 — ECU ↔ ELM327（OBD-IIポート経由、車内LAN）</text>

  <line x1="50" y1="645" x2="95" y2="645" stroke="#42a5f5" stroke-width="2.5" stroke-dasharray="6,3"/>
  <text x="105" y="649" fill="#cbd5e1" font-size="11">❷ Bluetooth 2.0 — ELM327 → ラズパイ（/dev/rfcomm0、SPPシリアル通信）</text>

  <line x1="50" y1="669" x2="95" y2="669" stroke="#66bb6a" stroke-width="2.5"/>
  <text x="105" y="673" fill="#cbd5e1" font-size="11">❸ WiFi → インターネット — ラズパイ → GAS Webhook → Google Sheets（トリップ/メンテ自動送信）</text>

  <line x1="50" y1="693" x2="95" y2="693" stroke="#fbbf24" stroke-width="2" stroke-dasharray="6,3"/>
  <text x="105" y="697" fill="#cbd5e1" font-size="11">❹ 自動更新 — GitHub Releases → ラズパイ（起動時に go-selfupdate でチェック・差し替え）</text>

  <line x1="50" y1="717" x2="95" y2="717" stroke="#fb923c" stroke-width="2"/>
  <text x="105" y="721" fill="#cbd5e1" font-size="11">❺ HDMI — ラズパイ → 5インチ LCD（meter.html 60fps表示、Web UI埋め込み）</text>

  <line x1="50" y1="741" x2="95" y2="741" stroke="#ef4444" stroke-width="1.5" stroke-dasharray="4,3"/>
  <text x="105" y="745" fill="#cbd5e1" font-size="11">❻ 電源 ACC連動 — シガーソケット → USB-C → ラズパイ + LCD ／ ELM327はOBD-II常時通電（スイッチでOFF可）</text>
</svg>
